<svg width="25" height="25" viewBox="0 0 25 25" fill="none" xmlns="http://www.w3.org/2000/svg">
<g clip-path="url(#clip0_6_2)">
<path d="M23.4375 0H1.5625C0.698828 0 0 0.698828 0 1.5625V23.4375C0 24.3012 0.698828 25 1.5625 25H23.4375C24.3012 25 25 24.3012 25 23.4375V1.5625C25 0.698828 24.3012 0 23.4375 0ZM20.7031 21.0938H4.29688C4.08086 21.0938 3.90625 20.9191 3.90625 20.7031C3.90625 20.4871 4.08086 20.3125 4.29688 20.3125H20.7031C20.9191 20.3125 21.0938 20.4871 21.0938 20.7031C21.0938 20.9191 20.9191 21.0938 20.7031 21.0938ZM20.7031 18.75H4.29688C4.08086 18.75 3.90625 18.5754 3.90625 18.3594C3.90625 18.1434 4.08086 17.9688 4.29688 17.9688H20.7031C20.9191 17.9688 21.0938 18.1434 21.0938 18.3594C21.0938 18.5754 20.9191 18.75 20.7031 18.75ZM4.29688 10.9375H11.3281C11.5441 10.9375 11.7188 11.1121 11.7188 11.3281C11.7188 11.5441 11.5441 11.7188 11.3281 11.7188H4.29688C4.08086 11.7188 3.90625 11.5441 3.90625 11.3281C3.90625 11.1121 4.08086 10.9375 4.29688 10.9375ZM3.90625 8.98438C3.90625 8.76836 4.08086 8.59375 4.29688 8.59375H11.3281C11.5441 8.59375 11.7188 8.76836 11.7188 8.98438C11.7188 9.20039 11.5441 9.375 11.3281 9.375H4.29688C4.08086 9.375 3.90625 9.20039 3.90625 8.98438ZM4.29688 13.2812H11.3281C11.5441 13.2812 11.7188 13.4559 11.7188 13.6719C11.7188 13.8879 11.5441 14.0625 11.3281 14.0625H4.29688C4.08086 14.0625 3.90625 13.8879 3.90625 13.6719C3.90625 13.4559 4.08086 13.2812 4.29688 13.2812ZM4.29688 15.625H11.3281C11.5441 15.625 11.7188 15.7996 11.7188 16.0156C11.7188 16.2316 11.5441 16.4062 11.3281 16.4062H4.29688C4.08086 16.4062 3.90625 16.2316 3.90625 16.0156C3.90625 15.7996 4.08086 15.625 4.29688 15.625ZM21.0938 16.0156C21.0938 16.2316 20.9191 16.4062 20.7031 16.4062H13.6719C13.4559 16.4062 13.2812 16.2316 13.2812 16.0156V8.98438C13.2812 8.76836 13.4559 8.59375 13.6719 8.59375H20.7031C20.9191 8.59375 21.0938 8.76836 21.0938 8.98438V16.0156ZM24.2188 4.6875H0.78125V1.5625C0.78125 1.13125 1.13125 0.78125 1.5625 0.78125H23.4375C23.8687 0.78125 24.2188 1.13125 24.2188 1.5625V4.6875Z" fill="#009DE0"/>
<path d="M2.73438 1.5625C2.08711 1.5625 1.5625 2.08711 1.5625 2.73438C1.5625 3.38164 2.08711 3.90625 2.73438 3.90625C3.38164 3.90625 3.90625 3.38164 3.90625 2.73438C3.90625 2.08711 3.38164 1.5625 2.73438 1.5625ZM2.73438 3.125C2.51836 3.125 2.34375 2.95039 2.34375 2.73438C2.34375 2.51836 2.51836 2.34375 2.73438 2.34375C2.95039 2.34375 3.125 2.51836 3.125 2.73438C3.125 2.95039 2.95039 3.125 2.73438 3.125Z" fill="#009DE0"/>
<path d="M12.8906 1.5625H5.85938C5.21211 1.5625 4.6875 2.08711 4.6875 2.73438C4.6875 3.38164 5.21211 3.90625 5.85938 3.90625H12.8906C13.5379 3.90625 14.0625 3.38164 14.0625 2.73438C14.0625 2.08711 13.5379 1.5625 12.8906 1.5625ZM12.8906 3.125H5.85938C5.64336 3.125 5.46875 2.95039 5.46875 2.73438C5.46875 2.51836 5.64336 2.34375 5.85938 2.34375H12.8906C13.1066 2.34375 13.2812 2.51836 13.2812 2.73438C13.2812 2.95039 13.1066 3.125 12.8906 3.125Z" fill="#009DE0"/>
</g>
<defs>
<clipPath id="clip0_6_2">
<rect width="25" height="25" fill="white"/>
</clipPath>
</defs>
</svg>
