<svg width="25" height="25" viewBox="0 0 25 25" fill="none" xmlns="http://www.w3.org/2000/svg">
<path fill-rule="evenodd" clip-rule="evenodd" d="M12.5 2.20588C6.41764 2.20588 1.47058 7.14853 1.47058 13.2235C1.47058 19.2985 6.41764 24.2412 12.5 24.2412C18.5838 24.2412 23.5294 19.2985 23.5294 13.2235C23.5294 7.14853 18.5838 2.20588 12.5 2.20588ZM13.1897 22.7132V19.9221H11.8103V22.7132C7.12205 22.3765 3.38382 18.65 3.02352 13.9706H5.83529V12.5H3.02352C3.38088 7.83529 7.09852 4.11764 11.7632 3.76029V6.59558H13.1882V3.75735C17.8765 4.09411 21.6147 7.82058 21.975 12.5H19.1397V13.925H21.9779C21.6397 18.6265 17.8912 22.375 13.1897 22.7132Z" fill="#009DE0"/>
<path fill-rule="evenodd" clip-rule="evenodd" d="M15.5641 11.1726L14.5856 10.1941L12.484 12.2956L10.3918 10.2034L9.41223 11.183L11.5044 13.2752L9.45071 15.3289L10.4292 16.3074L12.4829 14.2537L14.5148 16.2856L15.4944 15.306L13.4625 13.2741L15.5641 11.1726Z" fill="#009DE0"/>
</svg>
