<svg width="50" height="50" viewBox="0 0 50 50" fill="none" xmlns="http://www.w3.org/2000/svg">
<path d="M49.8709 10.9643C49.6455 9.82899 49.1421 8.79003 48.4391 7.93173C48.2908 7.74471 48.1359 7.57723 47.9681 7.40975C46.7225 6.158 44.9742 5.37714 43.0644 5.37714H6.93564C5.02578 5.37714 3.28379 6.158 2.03232 7.40975C1.86484 7.57723 1.70996 7.74471 1.56133 7.93173C0.85791 8.78993 0.354492 9.82899 0.135352 10.9643C0.0453125 11.4025 0 11.8554 0 12.3132V37.6875C0 38.6609 0.206445 39.5967 0.574609 40.4417C0.916113 41.2483 1.41963 41.9782 2.03223 42.5902C2.1875 42.7451 2.3417 42.8875 2.50996 43.0291C3.70977 44.0227 5.2585 44.6228 6.93564 44.6228H43.0644C44.7421 44.6228 46.2976 44.0227 47.4904 43.0228C47.6582 42.8875 47.8132 42.7451 47.9681 42.5902C48.5804 41.9782 49.0838 41.2483 49.4323 40.4417V40.4354C49.8004 39.5904 49.9999 38.6609 49.9999 37.6876V12.3132C50 11.8554 49.9554 11.4025 49.8709 10.9643ZM4.54189 9.91903C5.16152 9.30009 5.99365 8.92538 6.93564 8.92538H43.0644C44.0063 8.92538 44.8458 9.30009 45.4581 9.91903C45.5677 10.0293 45.6709 10.1521 45.762 10.2742L26.8258 26.7776C26.3035 27.2353 25.6584 27.4614 25 27.4614C24.3482 27.4614 23.7035 27.2353 23.1743 26.7776L4.24531 10.2672C4.3291 10.1451 4.43232 10.0293 4.54189 9.91903ZM3.54824 37.6875V13.939L17.2518 25.8935L3.55518 37.8354C3.54824 37.7901 3.54824 37.7391 3.54824 37.6875ZM43.0644 41.0739H6.93564C6.32227 41.0739 5.74834 40.9127 5.2585 40.6294L19.7095 28.0357L21.0586 29.2094C22.1876 30.1904 23.6004 30.6873 25 30.6873C26.4068 30.6873 27.8195 30.1904 28.9484 29.2094L30.2969 28.0357L44.7422 40.6294C44.2517 40.9127 43.6777 41.0739 43.0644 41.0739ZM46.4518 37.6875C46.4518 37.7391 46.4518 37.7901 46.4451 37.8354L32.7486 25.9005L46.4518 13.9453V37.6875Z" fill="white"/>
</svg>
