<svg width="25" height="25" viewBox="0 0 25 25" fill="none" xmlns="http://www.w3.org/2000/svg">
<g clip-path="url(#clip0_6_26)">
<path d="M22.6562 9.57499H21.1875C21.0328 9.11796 20.8711 8.73749 20.6852 8.37108L20.7094 8.42343L21.7547 7.38905C22.0281 7.15468 22.2 6.80936 22.2 6.42343C22.2 6.10624 22.0836 5.81561 21.8906 5.59296L21.8922 5.59452L19.4094 3.11171C19.1883 2.91952 18.8984 2.80311 18.5805 2.80311C18.1945 2.80311 17.8484 2.97577 17.6164 3.24843L17.6148 3.24999L16.5742 4.28905C16.2602 4.12811 15.8805 3.96639 15.4883 3.83124L15.4242 3.81171L15.4313 2.34296C15.4336 2.31171 15.4352 2.27577 15.4352 2.23905C15.4352 1.57186 14.9195 1.02499 14.2648 0.975769H14.2609H10.7484C10.0891 1.02499 9.57266 1.57186 9.57266 2.23905C9.57266 2.27577 9.57422 2.31171 9.57734 2.34764V2.34296V3.81093C9.12031 3.96561 8.74062 4.12655 8.37422 4.31171L8.42656 4.28749L7.39219 3.24374C7.15859 2.96874 6.8125 2.79608 6.42656 2.79608C6.10859 2.79608 5.81875 2.91327 5.59609 3.10624L5.59766 3.10468L3.11406 5.58827C2.92188 5.80936 2.80469 6.09999 2.80469 6.41718C2.80469 6.80311 2.97734 7.14921 3.25 7.38124L3.25156 7.3828L4.28984 8.42108C4.12813 8.73593 3.96641 9.11718 3.83125 9.51093L3.8125 9.57499L2.34375 9.56796C2.3125 9.56561 2.27656 9.56405 2.23984 9.56405C1.57266 9.56405 1.02578 10.0805 0.976562 10.7351V10.7391V14.2508C1.025 14.9101 1.57266 15.4266 2.23984 15.4266C2.27656 15.4266 2.3125 15.425 2.34844 15.4219H2.34375H3.8125C3.96719 15.8789 4.12812 16.2594 4.31406 16.6258L4.29063 16.5742L3.24766 17.6055C2.97344 17.8398 2.80078 18.1867 2.80078 18.5734C2.80078 18.8914 2.91719 19.182 3.11016 19.4047L3.10859 19.4031L5.59219 21.8859C5.78672 22.0781 6.05391 22.1976 6.35 22.1976C6.35547 22.1976 6.36094 22.1976 6.36641 22.1976H6.36562C6.76797 22.1875 7.12891 22.0172 7.3875 21.7476L7.38828 21.7469L8.42734 20.7078C8.74219 20.8695 9.12344 21.0312 9.51719 21.1664L9.58125 21.1859L9.57422 22.6531C9.57188 22.6844 9.57031 22.7203 9.57031 22.7562C9.57031 23.4234 10.0867 23.9711 10.7414 24.0195H10.7453H14.2578C14.9164 23.9695 15.432 23.4234 15.432 22.7562C15.432 22.7195 15.4305 22.6836 15.4273 22.6476V22.6523V21.1828C15.8844 21.0281 16.2656 20.8664 16.6328 20.6805L16.5805 20.7047L17.6125 21.7461C17.8719 22.0148 18.232 22.1851 18.6312 22.1945H18.6328H18.6344C18.6391 22.1945 18.6445 22.1945 18.6492 22.1945C18.9445 22.1945 19.2117 22.0765 19.4078 21.8859L21.8898 19.4039C22.0805 19.2094 22.1984 18.9422 22.1984 18.6476C22.1984 18.6406 22.1984 18.6344 22.1984 18.6273C22.1891 18.2266 22.0195 17.868 21.7516 17.6094L21.7508 17.6086L20.7109 16.568C20.8719 16.2547 21.0328 15.875 21.1688 15.4828L21.1883 15.418L22.6562 15.425C22.6875 15.4273 22.7234 15.4289 22.7594 15.4289C23.4273 15.4289 23.9742 14.9125 24.0227 14.257V14.2531V10.7414C23.9734 10.082 23.4266 9.56639 22.7586 9.56639C22.7219 9.56639 22.6859 9.56796 22.6508 9.57108H22.6555L22.6562 9.57499ZM22.6594 14.2578L20.7719 14.2484C20.7562 14.2484 20.743 14.2562 20.7281 14.257C20.5734 14.2758 20.4375 14.3469 20.3367 14.4515C20.2938 14.5078 20.2562 14.5711 20.2266 14.6391L20.2242 14.6453C20.2203 14.6562 20.2117 14.664 20.2086 14.6758C20.0211 15.3351 19.7766 15.9094 19.4711 16.4445L19.4914 16.4062C19.4492 16.4844 19.4242 16.5765 19.4242 16.675C19.4242 16.6758 19.4242 16.6773 19.4242 16.6781C19.4242 16.6906 19.4266 16.7 19.4273 16.7133C19.432 16.8594 19.4898 16.9906 19.5828 17.0891L19.5898 17.107L20.9234 18.4422C21.0086 18.5273 21.0305 18.6101 21.0609 18.5797L18.6375 21.0273C18.5602 21.0172 18.4922 20.9797 18.4437 20.9258L17.118 19.5875C17.1117 19.5805 17.1008 19.5836 17.0945 19.5773C17 19.4898 16.8758 19.4344 16.7383 19.4265H16.7367C16.7211 19.4242 16.7023 19.4226 16.6836 19.4219C16.5859 19.4219 16.493 19.4469 16.4133 19.4906L16.4164 19.489C15.9195 19.7719 15.3438 20.0172 14.7398 20.1945L14.682 20.2094C14.6703 20.2125 14.6625 20.2211 14.6516 20.225C14.5766 20.2578 14.5117 20.2969 14.4523 20.3414L14.4547 20.3398C14.4273 20.3664 14.4031 20.3953 14.382 20.4258L14.3805 20.4273C14.3594 20.4531 14.3391 20.482 14.3219 20.5133L14.3203 20.5164C14.2945 20.5797 14.2742 20.6531 14.2633 20.7305L14.2625 20.7359C14.2617 20.7484 14.2547 20.7601 14.2547 20.7726V22.657C14.2547 22.7742 14.2117 22.8508 14.2547 22.8523L10.8094 22.8703C10.7688 22.818 10.7437 22.7508 10.7437 22.6781C10.7437 22.6719 10.7438 22.6656 10.7445 22.6594L10.7539 20.7758C10.7539 20.7625 10.7477 20.7508 10.7461 20.7383C10.7422 20.6969 10.7344 20.6586 10.7227 20.6219L10.7234 20.6258C10.7141 20.5844 10.7016 20.5476 10.6859 20.5125L10.6875 20.5164C10.6469 20.4492 10.6023 20.3914 10.5523 20.3391C10.5297 20.3203 10.5039 20.3031 10.4773 20.2875L10.4742 20.2859C10.4398 20.2625 10.4016 20.2422 10.3602 20.2265L10.3562 20.225C10.3453 20.2211 10.3375 20.2125 10.3258 20.2094C9.66406 20.0211 9.0875 19.7765 8.55078 19.4719L8.59063 19.4922C8.51328 19.45 8.42187 19.425 8.32422 19.425C8.30703 19.4242 8.29297 19.4281 8.27578 19.4289C8.13516 19.4351 8.00859 19.4914 7.9125 19.5797C7.90625 19.5859 7.89688 19.5828 7.89063 19.589L6.55859 20.9211C6.475 21.0047 6.38984 21.0297 6.41953 21.0601L3.97109 18.6375C3.98047 18.5594 4.01797 18.4914 4.07266 18.4422L5.41172 17.118L5.42031 17.0976C5.51016 17.0016 5.56797 16.8742 5.57422 16.7336V16.732C5.575 16.7156 5.57812 16.7031 5.57812 16.6867C5.57812 16.6859 5.57812 16.6851 5.57812 16.6844C5.57812 16.5859 5.55313 16.493 5.50938 16.4125L5.51094 16.4156C5.22578 15.9187 4.98047 15.3445 4.80547 14.7398L4.79141 14.6836C4.78828 14.6719 4.77891 14.6633 4.775 14.6515C4.74219 14.5781 4.70469 14.514 4.66094 14.4562L4.6625 14.4586C4.61172 14.4109 4.55625 14.3672 4.49688 14.3297L4.49219 14.3273C4.45234 14.3078 4.40703 14.2922 4.35859 14.2828L4.35469 14.282C4.33203 14.275 4.30391 14.2695 4.275 14.2656H4.27187C4.25625 14.2641 4.24297 14.2562 4.22656 14.2562H2.34219C2.22344 14.2578 2.14844 14.2133 2.14687 14.2547L2.12969 10.8101C2.18203 10.7695 2.24766 10.7445 2.32031 10.7445C2.32734 10.7445 2.33359 10.7445 2.34063 10.7453H2.33984L4.22734 10.7547C4.34609 10.7516 4.45547 10.7125 4.54531 10.6484L4.54375 10.65C4.5625 10.6391 4.57813 10.6281 4.59375 10.6164L4.59219 10.6172C4.67734 10.5484 4.74141 10.4562 4.77578 10.3508L4.77656 10.3469C4.77891 10.3391 4.7875 10.3359 4.78984 10.3273C4.97891 9.66561 5.22344 9.09061 5.52891 8.55389L5.50859 8.59296C5.55078 8.51483 5.57578 8.42264 5.57578 8.32421C5.57578 8.32343 5.57578 8.32343 5.57578 8.32264C5.57656 8.3078 5.57344 8.29686 5.57266 8.28202C5.56719 8.13827 5.51016 8.00858 5.41875 7.91093L5.41094 7.89218L4.07891 6.56014C3.99453 6.47421 3.96797 6.38749 3.94141 6.42108L6.36484 3.97264C6.44375 3.97889 6.5125 4.01796 6.55859 4.07499L6.55937 4.07577L7.88516 5.41405C7.89922 5.42811 7.92109 5.42264 7.93594 5.43514C8.03359 5.52968 8.16641 5.58827 8.31328 5.58827C8.41484 5.58827 8.50938 5.56014 8.59063 5.51171L8.58828 5.51327C9.08516 5.22889 9.66016 4.98436 10.2641 4.80858L10.3203 4.79452C10.3313 4.79139 10.3391 4.7828 10.35 4.77968C10.3945 4.76327 10.432 4.74296 10.468 4.71952L10.4656 4.72108C10.593 4.65077 10.6852 4.53046 10.7164 4.38749L10.7172 4.38436C10.7281 4.35077 10.7367 4.31171 10.7406 4.27108V4.26874C10.7414 4.25624 10.7477 4.2453 10.7477 4.2328V2.34843C10.7477 2.23046 10.7914 2.15389 10.7484 2.15311L14.1937 2.13514C14.2344 2.18749 14.2586 2.25389 14.2586 2.32655C14.2586 2.33358 14.2586 2.33983 14.2578 2.34686L14.2484 4.23046C14.2484 4.24296 14.2547 4.25389 14.2555 4.26718C14.2594 4.31014 14.2672 4.34999 14.2797 4.38827L14.2789 4.38436C14.3344 4.56718 14.4687 4.71171 14.6414 4.77968L14.6453 4.78124C14.6563 4.78514 14.6648 4.79374 14.6758 4.79686C15.3359 4.98593 15.9102 5.23046 16.4453 5.53514L16.4062 5.51483C16.4883 5.56171 16.5867 5.58983 16.6922 5.58983H16.693C16.8359 5.58358 16.9641 5.52577 17.0609 5.43514C17.0742 5.42343 17.0945 5.42889 17.107 5.41639L18.4422 4.08436C18.5242 4.00155 18.6086 3.97733 18.5797 3.94686L21.0273 6.3703C21.018 6.44843 20.9812 6.51561 20.9266 6.56483L19.5867 7.89061L19.5781 7.91093C19.4875 8.00702 19.4297 8.13514 19.4234 8.27655V8.27811C19.4227 8.29374 19.4195 8.30624 19.4195 8.32186C19.4195 8.32264 19.4195 8.32343 19.4195 8.32421C19.4195 8.42264 19.4445 8.51561 19.4883 8.59608L19.4867 8.59296C19.7719 9.08983 20.0172 9.66405 20.1914 10.268L20.2055 10.3234C20.2078 10.3328 20.218 10.3367 20.2203 10.3453C20.2562 10.4523 20.3195 10.543 20.4016 10.6101L20.4023 10.6109C20.4172 10.6226 20.4344 10.6344 20.4516 10.6445L20.4539 10.6461C20.5414 10.7086 20.6508 10.7476 20.768 10.7508H22.6531C22.7719 10.75 22.8469 10.7953 22.8484 10.7516L22.8648 14.1961C22.8141 14.2375 22.7484 14.2625 22.6773 14.2625C22.6695 14.2625 22.6625 14.2625 22.6547 14.2617H22.6555L22.6594 14.2578ZM12.5 8.78905C10.4508 8.78905 8.78906 10.4508 8.78906 12.5C8.78906 14.5492 10.4508 16.2109 12.5 16.2109C14.5492 16.2109 16.2109 14.5492 16.2109 12.5C16.2086 10.4516 14.5484 8.79139 12.5 8.78905ZM12.5 15.039C11.0977 15.039 9.96094 13.9023 9.96094 12.5C9.96094 11.0976 11.0977 9.96093 12.5 9.96093C13.9023 9.96093 15.0391 11.0976 15.0391 12.5C15.0375 13.9016 13.9016 15.0375 12.5 15.039Z" fill="#009DE0"/>
</g>
<defs>
<clipPath id="clip0_6_26">
<rect width="25" height="25" fill="white"/>
</clipPath>
</defs>
</svg>
