<svg width="25" height="25" viewBox="0 0 25 25" fill="none" xmlns="http://www.w3.org/2000/svg">
<path d="M7.22266 13.4113V12.7875L7.40977 12.7016L12.5 15.0336L24.2188 9.66523L12.5 4.29688L0.78125 9.66523L6.10547 12.1039C6.07531 12.1824 6.05918 12.2655 6.05781 12.3496V12.8777L5.12813 12.452V14.2566C5.12813 14.791 5.27148 15.2707 5.51758 15.702V19.7141C5.51758 21.0324 7.76367 21.0324 7.76367 19.7141V17.5437C12.0027 19.427 19.8715 18.3344 19.8715 14.2562V12.4516L12.5 15.8285L7.22266 13.4113ZM7.37305 19.7145C7.37305 19.8539 7.28242 19.9793 7.13945 20.0676V15.1156L7.0625 15.168V20.1102L6.83203 20.1809V15.2582L6.75586 15.2719V20.1922H6.52539V15.2719L6.44844 15.2582V20.1813L6.21875 20.1105V15.168L6.1418 15.1156V20.0676C5.99922 19.9789 5.9082 19.8539 5.9082 19.7145V15.0336C5.9082 14.5859 6.13789 14.2125 6.44844 14.0996V12.3496C6.44844 12.2305 6.50781 12.1414 6.58945 12.1043L12.4488 9.41953C12.4689 9.41004 12.4907 9.40485 12.5129 9.4043C12.6996 9.4043 12.7605 9.81445 12.5512 9.91055L6.83203 12.5301V14.0996C7.14297 14.2117 7.37305 14.5852 7.37305 15.0336V19.7145Z" fill="#009DE0"/>
</svg>
