<svg width="50" height="50" viewBox="0 0 50 50" fill="none" xmlns="http://www.w3.org/2000/svg">
<g clip-path="url(#clip0_4_36)">
<path d="M3.15999 43.5503L3.16 43.55H3.15C2.29947 43.55 1.60146 43.2686 1.04142 42.7086C0.479815 42.147 0.199998 41.4649 0.199998 40.65V3.15H0.200157L0.199838 3.14201C0.168914 2.36891 0.444286 1.68855 1.04142 1.09142C1.61626 0.516581 2.28601 0.222482 3.05919 0.201241C3.06811 0.207079 3.07697 0.212095 3.08555 0.216385C3.14401 0.245615 3.20645 0.25 3.25 0.25H3.25039H3.25078H3.25117H3.25156H3.25195H3.25234H3.25273H3.25312H3.25351H3.2539H3.25429H3.25469H3.25508H3.25547H3.25586H3.25625H3.25664H3.25703H3.25742H3.25781H3.2582H3.25859H3.25898H3.25937H3.25976H3.26015H3.26054H3.26094H3.26133H3.26172H3.26211H3.2625H3.26289H3.26328H3.26367H3.26406H3.26445H3.26484H3.26523H3.26562H3.26601H3.2664H3.26679H3.26719H3.26758H3.26797H3.26836H3.26875H3.26914H3.26953H3.26992H3.27031H3.2707H3.27109H3.27148H3.27187H3.27226H3.27265H3.27304H3.27344H3.27383H3.27422H3.27461H3.275H3.27539H3.27578H3.27617H3.27656H3.27695H3.27734H3.27773H3.27812H3.27851H3.2789H3.27929H3.27969H3.28008H3.28047H3.28086H3.28125H3.28164H3.28203H3.28242H3.28281H3.2832H3.28359H3.28398H3.28437H3.28476H3.28515H3.28554H3.28594H3.28633H3.28672H3.28711H3.2875H3.28789H3.28828H3.28867H3.28906H3.28945H3.28984H3.29023H3.29062H3.29101H3.2914H3.29179H3.29219H3.29258H3.29297H3.29336H3.29375H3.29414H3.29453H3.29492H3.29531H3.2957H3.29609H3.29648H3.29687H3.29726H3.29765H3.29804H3.29844H3.29883H3.29922H3.29961H3.3H3.30039H3.30078H3.30117H3.30156H3.30195H3.30234H3.30273H3.30312H3.30351H3.3039H3.30429H3.30469H3.30508H3.30547H3.30586H3.30625H3.30664H3.30703H3.30742H3.30781H3.3082H3.30859H3.30898H3.30937H3.30976H3.31015H3.31054H3.31094H3.31133H3.31172H3.31211H3.3125H3.31289H3.31328H3.31367H3.31406H3.31445H3.31484H3.31523H3.31562H3.31601H3.3164H3.31679H3.31719H3.31758H3.31797H3.31836H3.31875H3.31914H3.31953H3.31992H3.32031H3.3207H3.32109H3.32148H3.32187H3.32226H3.32265H3.32304H3.32344H3.32383H3.32422H3.32461H3.325H3.32539H3.32578H3.32617H3.32656H3.32695H3.32734H3.32773H3.32812H3.32851H3.3289H3.32929H3.32969H3.33008H3.33047H3.33086H3.33125H3.33164H3.33203H3.33242H3.33281H3.3332H3.33359H3.33398H3.33437H3.33476H3.33515H3.33554H3.33594H3.33633H3.33672H3.33711H3.3375H3.33789H3.33828H3.33867H3.33906H3.33945H3.33984H3.34023H3.34062H3.34101H3.3414H3.34179H3.34219H3.34258H3.34297H3.34336H3.34375H3.34414H3.34453H3.34492H3.34531H3.3457H3.34609H3.34648H3.34687H3.34726H3.34765H3.34804H3.34844H3.34883H3.34922H3.34961H3.35H3.35039H3.35078H3.35117H3.35156H3.35195H3.35234H3.35273H3.35312H3.35351H3.3539H3.35429H3.35469H3.35508H3.35547H3.35586H3.35625H3.35664H3.35703H3.35742H3.35781H3.3582H3.35859H3.35898H3.35937H3.35976H3.36015H3.36054H3.36094H3.36133H3.36172H3.36211H3.3625H3.36289H3.36328H3.36367H3.36406H3.36445H3.36484H3.36523H3.36562H3.36601H3.3664H3.36679H3.36719H3.36758H3.36797H3.36836H3.36875H3.36914H3.36953H3.36992H3.37031H3.3707H3.37109H3.37148H3.37187H3.37226H3.37265H3.37304H3.37344H3.37383H3.37422H3.37461H3.375H3.37539H3.37578H3.37617H3.37656H3.37695H3.37734H3.37773H3.37812H3.37851H3.3789H3.37929H3.37969H3.38008H3.38047H3.38086H3.38125H3.38164H3.38203H3.38242H3.38281H3.3832H3.38359H3.38398H3.38437H3.38476H3.38515H3.38554H3.38594H3.38633H3.38672H3.38711H3.3875H3.38789H3.38828H3.38867H3.38906H3.38945H3.38984H3.39023H3.39062H3.39101H3.3914H3.39179H3.39219H3.39258H3.39297H3.39336H3.39375H3.39414H3.39453H3.39492H3.39531H3.3957H3.39609H3.39648H3.39687H3.39726H3.39765H3.39804H3.39844H3.39883H3.39922H3.39961H3.4H3.40039H3.40078H3.40117H3.40156H3.40195H3.40234H3.40273H3.40312H3.40351H3.4039H3.40429H3.40469H3.40508H3.40547H3.40586H3.40625H3.40664H3.40703H3.40742H3.40781H3.4082H3.40859H3.40898H3.40937H3.40976H3.41015H3.41054H3.41094H3.41133H3.41172H3.41211H3.4125H3.41289H3.41328H3.41367H3.41406H3.41445H3.41484H3.41523H3.41562H3.41601H3.4164H3.41679H3.41719H3.41758H3.41797H3.41836H3.41875H3.41914H3.41953H3.41992H3.42031H3.4207H3.42109H3.42148H3.42187H3.42226H3.42265H3.42304H3.42344H3.42383H3.42422H3.42461H3.425H3.42539H3.42578H3.42617H3.42656H3.42695H3.42734H3.42773H3.42812H3.42851H3.4289H3.42929H3.42969H3.43008H3.43047H3.43086H3.43125H3.43164H3.43203H3.43242H3.43281H3.4332H3.43359H3.43398H3.43437H3.43476H3.43515H3.43554H3.43594H3.43633H3.43672H3.43711H3.4375H3.43789H3.43828H3.43867H3.43906H3.43945H3.43984H3.44023H3.44062H3.44101H3.4414H3.44179H3.44219H3.44258H3.44297H3.44336H3.44375H3.44414H3.44453H3.44492H3.44531H3.4457H3.44609H3.44648H3.44687H3.44721C10.6053 0.44992 16.0634 1.21577 19.8338 2.53872L19.8347 2.53902C22.5181 3.46664 24.0941 4.57272 24.6623 5.82028L24.8084 6.30747L25.198 6.27828C25.2861 5.66166 25.8116 4.95413 26.8683 4.16131C28.4848 3.00257 30.9272 2.08937 34.2141 1.43364C37.4897 0.780176 41.5883 0.385361 46.5127 0.251084C46.6205 0.289168 46.7337 0.281768 46.8394 0.228885C46.8675 0.214869 46.8876 0.206635 46.9007 0.202237C46.9031 0.201461 46.905 0.20087 46.9065 0.200426C47.7178 0.234746 48.3983 0.53118 48.9586 1.09142C49.5202 1.65302 49.8 2.33511 49.8 3.15V40.65H49.7999L49.8001 40.6577C49.8313 41.4664 49.5543 42.1441 48.9625 42.7048C48.3643 43.2714 47.6796 43.55 46.9 43.55V43.5498L46.89 43.5503C44.8867 43.6504 42.8834 43.8007 40.8801 44.001C38.8702 44.202 36.5954 44.5869 34.0563 45.1548C31.5144 45.7234 29.4798 46.3946 27.959 47.1719L27.8701 47.2174L27.853 47.3157C27.7272 48.039 27.3992 48.6311 26.8677 49.1C26.3381 49.5673 25.7187 49.8 25 49.8C24.2813 49.8 23.6619 49.5673 23.1323 49.1C22.6029 48.6329 22.2922 48.044 22.1983 47.3241L22.1847 47.2198L22.091 47.1719C20.5699 46.3944 18.5182 45.7232 15.9431 45.1547C13.3712 44.5869 11.0966 44.202 9.12023 44.001C7.15011 43.8007 5.16336 43.6504 3.15999 43.5503ZM6.05 37.7V37.8901L6.23983 37.8997C13.4344 38.2661 18.6165 39.2483 21.8113 40.8293L22.1 40.9721V40.65V9.8V9.67639L21.9894 9.62111C18.6864 7.96961 13.4373 6.88431 6.26484 6.35055L6.05 6.33456V6.55V37.7ZM27.95 40.65V40.9736L28.2394 40.8289C31.4005 39.2484 36.5654 38.2661 43.7602 37.8997L43.95 37.8901V37.7V6.55V6.33456L43.7352 6.35055C36.563 6.8843 31.3299 7.96957 28.0598 9.62148L27.95 9.67696V9.8V40.65ZM9.92828 31.102C9.80262 31.0841 9.69272 31.0704 9.6 31.0616V25.2005C11.2729 25.209 12.7102 25.325 13.9138 25.5467C15.1768 25.7793 16.0911 26.026 16.6688 26.2828C17.2512 26.5416 17.6924 26.8439 18.002 27.1845C18.1664 27.3654 18.2904 27.5137 18.3762 27.6308C18.467 27.7546 18.4996 27.8231 18.506 27.8485C18.5367 27.9714 18.55 28.0712 18.55 28.15V33.3699C18.4893 33.2824 18.4221 33.1978 18.3487 33.1162C18.0227 32.754 17.5609 32.4559 16.9762 32.2151C16.3964 31.9763 15.7672 31.7895 15.0892 31.6539C14.42 31.5201 13.7674 31.4029 13.1312 31.3024C12.4877 31.2008 11.8439 31.15 11.2 31.15C10.5655 31.15 10.1456 31.1331 9.92828 31.102ZM9.92828 18.602C9.80262 18.5841 9.69272 18.5704 9.6 18.5616V12.7005C11.2729 12.709 12.7102 12.825 13.9138 13.0467C15.1767 13.2793 16.0911 13.526 16.6688 13.7828C17.2512 14.0416 17.6924 14.3439 18.002 14.6845C18.1664 14.8654 18.2904 15.0137 18.3762 15.1308C18.467 15.2546 18.4996 15.3231 18.506 15.3485C18.5367 15.4714 18.55 15.5712 18.55 15.65V20.8699C18.4893 20.7824 18.4221 20.6978 18.3487 20.6162C18.0227 20.254 17.5609 19.9559 16.9762 19.7151C16.3964 19.4763 15.7672 19.2895 15.0892 19.1539C14.42 19.0201 13.7674 18.9029 13.1312 18.8024C12.4877 18.7008 11.8439 18.65 11.2 18.65C10.5655 18.65 10.1456 18.6331 9.92828 18.602ZM32.0871 32.6849C31.8282 32.8621 31.6146 33.056 31.45 33.2668V28.1665L31.4934 27.9063C31.52 27.8476 31.5725 27.7616 31.66 27.645C31.7549 27.5185 31.8837 27.3652 32.048 27.1845C32.3596 26.8417 32.7862 26.5393 33.3352 26.281C33.8766 26.0262 34.7879 25.7797 36.0853 25.5469C37.3216 25.325 38.7759 25.209 40.45 25.2005V31.0597L39.645 31.1C38.9668 31.1003 38.1749 31.1682 37.2707 31.3022C36.3687 31.4358 35.45 31.5861 34.5148 31.7531C33.56 31.9236 32.7486 32.2323 32.0871 32.6849ZM32.0871 20.1849C31.8282 20.3621 31.6146 20.556 31.45 20.7668V15.6665L31.4934 15.4063C31.52 15.3476 31.5725 15.2616 31.66 15.145C31.7549 15.0185 31.8837 14.8652 32.048 14.6845C32.3596 14.3417 32.7862 14.0393 33.3352 13.781C33.8766 13.5262 34.7879 13.2797 36.0853 13.0469C37.3216 12.825 38.7759 12.709 40.45 12.7005V18.5597L39.645 18.6C38.9668 18.6003 38.1749 18.6682 37.2707 18.8022C36.3687 18.9358 35.45 19.0861 34.5148 19.2531C33.56 19.4236 32.7486 19.7323 32.0871 20.1849Z" fill="#D3BDBD" stroke="black" stroke-width="0.4"/>
</g>
<defs>
<clipPath id="clip0_4_36">
<rect width="50" height="50" fill="white"/>
</clipPath>
</defs>
</svg>
