<svg width="42" height="35" viewBox="0 0 42 35" fill="none" xmlns="http://www.w3.org/2000/svg">
<path d="M2.96 26.352C2.512 26.352 2.128 26.3093 1.808 26.224C1.46667 26.16 1.18933 26.0853 0.976 26V23.504C1.18933 23.5893 1.44533 23.664 1.744 23.728C2.02133 23.792 2.29867 23.824 2.576 23.824C3.216 23.824 3.77067 23.696 4.24 23.44C4.73067 23.1627 5.18933 22.6827 5.616 22C6.064 21.296 6.512 20.304 6.96 19.024C7.30133 18.0427 7.664 16.912 8.048 15.632C8.45333 14.352 8.85867 12.9973 9.264 11.568C9.66933 10.1173 10.064 8.67733 10.448 7.248C10.8533 5.79733 11.2267 4.432 11.568 3.152H22.928L18.064 26H15.184L19.504 5.712H13.68C13.4667 6.544 13.2213 7.45067 12.944 8.432C12.688 9.41333 12.4107 10.416 12.112 11.44C11.8347 12.464 11.5467 13.4773 11.248 14.48C10.9707 15.4827 10.6933 16.4427 10.416 17.36C10.1387 18.256 9.872 19.0773 9.616 19.824C9.14667 21.168 8.63467 22.3307 8.08 23.312C7.52533 24.2933 6.84267 25.0507 6.032 25.584C5.24267 26.096 4.21867 26.352 2.96 26.352Z" fill="#6A2420"/>
<path d="M40.656 26L35.824 3.152H32.976L35.024 12.816H24.976L22.928 3.152H20.112L24.944 26H27.76L25.52 15.344H35.568L37.808 26H40.656Z" fill="#B55F5F"/>
</svg>
