<svg width="51" height="51" viewBox="0 0 51 51" fill="none" xmlns="http://www.w3.org/2000/svg">
<path d="M25.6667 0.666656C20.7223 0.666656 15.8887 2.13287 11.7774 4.8799C7.66622 7.62693 4.4619 11.5314 2.56972 16.0995C0.677529 20.6676 0.182435 25.6944 1.14706 30.5438C2.11168 35.3935 4.49272 39.8479 7.98903 43.3444C11.4853 46.8407 15.9399 49.2216 20.7895 50.1863C25.6389 51.151 30.6657 50.6557 35.2339 48.7635C39.802 46.8713 43.7064 43.6672 46.4536 39.556C49.2004 35.4447 50.6667 30.6113 50.6667 25.6666C50.6667 19.0362 48.0326 12.6774 43.3445 7.98899C38.6561 3.30056 32.297 0.666656 25.6667 0.666656ZM37.9479 17.7916L33.8542 37.1354C33.5417 38.5104 32.7292 38.8229 31.5729 38.1979L25.3229 33.5729L22.1979 36.4791C22.0508 36.6713 21.8617 36.8276 21.6451 36.936C21.4286 37.0441 21.1901 37.1016 20.9479 37.1041L21.3854 30.8541L32.9479 20.3854C33.4792 19.9479 32.9479 19.6979 32.1979 20.1354L18.0104 29.0416L11.7604 27.1041C10.4167 26.6979 10.3854 25.7604 12.0417 25.1354L36.1354 15.7604C37.3229 15.4166 38.3229 16.1041 37.9479 17.7916Z" fill="white"/>
</svg>
