<svg width="50" height="50" viewBox="0 0 50 50" fill="none" xmlns="http://www.w3.org/2000/svg">
<g clip-path="url(#clip0_7_33)">
<path d="M32.675 0H17.325C3.31667 0 0 3.31667 0 17.325V32.675C0 46.6833 3.31667 50 17.325 50H32.675C46.6833 50 50 46.6833 50 32.675V17.325C50 3.31667 46.6479 0 32.675 0ZM40.3667 35.6729H36.7333C35.3583 35.6729 34.9333 34.5792 32.4625 32.075C30.3104 29.9917 29.3583 29.7104 28.8292 29.7104C28.0875 29.7104 27.875 29.9229 27.875 30.9458V34.2271C27.875 35.1104 27.5937 35.6396 25.2646 35.6396C21.4187 35.6396 17.1479 33.3104 14.15 28.9687C9.63333 22.6187 8.39583 17.8542 8.39583 16.8667C8.39583 16.3375 8.60833 15.8437 9.63125 15.8437H13.2646C14.1812 15.8437 14.5354 16.2667 14.8896 17.2542C16.6875 22.4417 19.6875 26.9937 20.9229 26.9937C21.3812 26.9937 21.5937 26.7812 21.5937 25.6187V20.2521C21.4521 17.7812 20.1458 17.5708 20.1458 16.6896C20.1458 16.2646 20.5 15.8417 21.0625 15.8417H26.7792C27.5562 15.8417 27.8375 16.2646 27.8375 17.1812V24.4167C27.8375 25.1917 28.1917 25.475 28.4021 25.475C28.8604 25.475 29.25 25.1917 30.0958 24.3458C32.7083 21.4167 34.5771 16.9 34.5771 16.9C34.825 16.3708 35.2479 15.8771 36.1667 15.8771H39.8C40.8937 15.8771 41.1417 16.4396 40.8937 17.2167C40.4354 19.3354 35.9896 25.6146 35.9896 25.6146C35.6021 26.25 35.4604 26.5312 35.9896 27.2396C36.3771 27.7687 37.6479 28.8625 38.4958 29.85C40.0479 31.6146 41.2458 33.0958 41.5646 34.1208C41.9187 35.1417 41.3875 35.6708 40.3646 35.6708L40.3667 35.6729Z" fill="white"/>
</g>
<defs>
<clipPath id="clip0_7_33">
<rect width="50" height="50" fill="white"/>
</clipPath>
</defs>
</svg>
